<?xml version="1.0" encoding="UTF-8" standalone="no"?>
<!-- Created with Inkscape (http://www.inkscape.org/) -->

<svg
   xmlns:dc="http://purl.org/dc/elements/1.1/"
   xmlns:cc="http://creativecommons.org/ns#"
   xmlns:rdf="http://www.w3.org/1999/02/22-rdf-syntax-ns#"
   xmlns:svg="http://www.w3.org/2000/svg"
   xmlns="http://www.w3.org/2000/svg"
   xmlns:sodipodi="http://sodipodi.sourceforge.net/DTD/sodipodi-0.dtd"
   xmlns:inkscape="http://www.inkscape.org/namespaces/inkscape"
   width="141.73228"
   height="141.73228"
   id="svg5208"
   version="1.1"
   inkscape:version="0.48.4 r9939"
   sodipodi:docname="logo_sticker.eps">
  <defs
     id="defs5210">
    <path
       sodipodi:nodetypes="csscc"
       inkscape:connector-curvature="0"
       id="path5067-5"
       d="m 1677.2233,3212.513 c 17.1693,24.0181 31.4456,58.8976 45.5827,111.365 8.3104,30.8392 19.8075,61.3704 33.0855,87.8594 13.5831,27.096 24.527,41.5883 35.5602,47.0851 3.6066,1.7978 7.5529,3.269 8.7689,3.269"
       style="color:#000000;fill:none;stroke:none;stroke-width:1.25869668;marker:none;visibility:visible;display:inline;overflow:visible;enable-background:accumulate" />
  </defs>
  <sodipodi:namedview
     id="base"
     pagecolor="#ffffff"
     bordercolor="#666666"
     borderopacity="1.0"
     inkscape:pageopacity="0"
     inkscape:pageshadow="2"
     inkscape:zoom="2.5964444"
     inkscape:cx="70.866143"
     inkscape:cy="70.8659"
     inkscape:document-units="px"
     inkscape:current-layer="layer1"
     showgrid="false"
     fit-margin-top="0"
     fit-margin-left="0"
     fit-margin-right="0"
     fit-margin-bottom="0"
     units="cm"
     inkscape:window-width="1916"
     inkscape:window-height="536"
     inkscape:window-x="0"
     inkscape:window-y="0"
     inkscape:window-maximized="0" />
  <metadata
     id="metadata5213">
    <rdf:RDF>
      <cc:Work
         rdf:about="">
        <dc:format>image/svg+xml</dc:format>
        <dc:type
           rdf:resource="http://purl.org/dc/dcmitype/StillImage" />
        <dc:title></dc:title>
      </cc:Work>
    </rdf:RDF>
  </metadata>
  <g
     inkscape:label="Layer 1"
     inkscape:groupmode="layer"
     id="layer1"
     transform="translate(-35.791434,-863.40958)">
    <g
       transform="matrix(0.18582899,0,0,0.185829,-208.80074,312.05953)"
       id="g5167">
      <path
         sodipodi:nodetypes="cccccccccc"
         style="color:#000000;fill:#324ab2;fill-opacity:1;fill-rule:nonzero;stroke-width:1.48071814;stroke-linecap:butt;stroke-linejoin:miter;stroke-miterlimit:4;stroke-opacity:1;stroke-dasharray:none;stroke-dashoffset:0;marker:none;visibility:visible;display:inline;overflow:visible;enable-background:accumulate"
         d="m 1569.0935,3291.6716 c 80.4815,6.846 121.802,183.5841 193.337,146.0757 55.5186,-32.3155 137.0285,-121.8293 110.4459,-204.6765 -29.6385,-109.3994 -146.3013,-179.7726 -256.8142,-170.2911 -141.435,7.8292 -265.6274,122.1065 -291.8351,260.3021 -27.8821,131.3654 18.064,278.1501 122.3155,364.483 -85.818,-111.0891 -117.7425,-272.657 -49.7292,-400.2417 49.878,-95.1402 162.0629,-164.4394 270.7288,-137.7185 56.5969,13.9029 110.6055,57.8632 119.0021,118.1028 -102.025,-37.2943 -131.2112,-40.8535 -217.4508,23.9642 z"
         id="path5053"
         inkscape:connector-curvature="0"
         inkscape:transform-center-x="71.375695"
         inkscape:transform-center-y="18.774924" />
      <path
         inkscape:transform-center-y="-18.774889"
         inkscape:transform-center-x="-71.37572"
         inkscape:connector-curvature="0"
         id="path5055"
         d="m 1826.053,3404.9844 c -80.4817,-6.846 -121.8021,-183.5842 -193.3371,-146.0759 -55.5186,32.3155 -137.0285,121.8294 -110.4459,204.6767 29.6385,109.3994 146.3013,179.7726 256.8142,170.291 141.4351,-7.8291 265.6275,-122.1066 291.8351,-260.3021 27.8822,-131.3654 -18.064,-278.1502 -122.3154,-364.4829 85.8179,111.0891 117.7424,272.657 49.7292,400.2415 -49.8782,95.1404 -162.063,164.4396 -270.729,137.7185 -56.5968,-13.9029 -110.6054,-57.863 -119.002,-118.1026 102.0249,37.2941 131.2112,40.8534 217.4509,-23.9642 z"
         style="color:#000000;fill:#228b22;fill-opacity:1;fill-rule:nonzero;stroke-width:1.48071814;stroke-linecap:butt;stroke-linejoin:miter;stroke-miterlimit:4;stroke-opacity:1;stroke-dasharray:none;stroke-dashoffset:0;marker:none;visibility:visible;display:inline;overflow:visible;enable-background:accumulate"
         sodipodi:nodetypes="cccccccccc" />
      <path
         sodipodi:nodetypes="cccccccccc"
         style="color:#000000;fill:#62b031;fill-opacity:1;fill-rule:nonzero;stroke-width:1.75774419;stroke-linecap:butt;stroke-linejoin:miter;stroke-miterlimit:4;stroke-opacity:1;stroke-dasharray:none;stroke-dashoffset:0;marker:none;visibility:visible;display:inline;overflow:visible;enable-background:accumulate"
         d="m 1640.9167,3476.8077 c 6.846,-80.4816 183.5841,-121.8021 146.0759,-193.3371 -32.3155,-55.5186 -121.8294,-137.0285 -204.6766,-110.4459 -109.3994,29.6385 -179.7726,146.3013 -170.291,256.8143 7.8291,141.435 122.1066,265.6273 260.3022,291.8349 131.3652,27.8824 278.1499,-18.0637 364.4826,-122.3152 -111.089,85.818 -272.6569,117.7424 -400.2412,49.7292 -95.1404,-49.8782 -164.4397,-162.063 -137.7185,-270.729 13.9028,-56.5969 57.863,-110.6057 118.1024,-119.0021 -37.294,102.025 -40.8533,131.2113 23.9642,217.4509 z"
         id="path5057"
         inkscape:connector-curvature="0"
         inkscape:transform-center-x="-18.774911"
         inkscape:transform-center-y="71.375686" />
      <path
         inkscape:transform-center-y="-71.37571"
         inkscape:transform-center-x="18.774911"
         inkscape:connector-curvature="0"
         id="path5059"
         d="m 1754.2297,3219.8482 c -6.846,80.4815 -183.5841,121.8021 -146.0759,193.3372 32.3155,55.5186 121.8293,137.0285 204.6766,110.4457 109.3993,-29.6384 179.7725,-146.3011 170.2909,-256.8143 -7.8291,-141.4348 -122.1064,-265.6273 -260.3021,-291.8349 -131.3653,-27.8822 -278.15,18.0639 -364.4827,122.3154 111.089,-85.818 272.6568,-117.7424 400.2414,-49.7292 95.1403,49.8781 164.4394,162.0629 137.7185,270.729 -13.9029,56.5967 -57.8631,110.6054 -118.1025,119.002 37.2941,-102.0249 40.8533,-131.2113 -23.9642,-217.4509 z"
         style="color:#000000;fill:#5780d7;fill-opacity:1;fill-rule:nonzero;stroke-width:1.75774419;stroke-linecap:butt;stroke-linejoin:miter;stroke-miterlimit:4;stroke-opacity:1;stroke-dasharray:none;stroke-dashoffset:0;marker:none;visibility:visible;display:inline;overflow:visible;enable-background:accumulate"
         sodipodi:nodetypes="cccccccccc" />
      <g
         id="g5061"
         transform="matrix(1.0108604,0,0,1.0108604,1388.2815,1107.9187)">
        <path
           sodipodi:type="arc"
           style="color:#000000;fill:#ffffff;fill-opacity:1;fill-rule:nonzero;stroke:none;stroke-width:1;marker:none;visibility:visible;display:inline;overflow:visible;enable-background:accumulate"
           id="path5063"
           sodipodi:cx="-619.56403"
           sodipodi:cy="241.02837"
           sodipodi:rx="134.40277"
           sodipodi:ry="134.40277"
           d="m -485.16125,241.02837 c 0,74.2286 -60.17418,134.40277 -134.40278,134.40277 -74.2286,0 -134.40277,-60.17417 -134.40277,-134.40277 0,-74.2286 60.17417,-134.40277 134.40277,-134.40277 74.2286,0 134.40278,60.17417 134.40278,134.40277 z"
           transform="matrix(1.5853659,0,0,1.5853659,1288.204,1834.2189)" />
        <g
           transform="matrix(1.6643311,0,0,1.6643311,1701.099,1646.5196)"
           id="g5065">
          <path
             sodipodi:nodetypes="csssssssc"
             inkscape:connector-curvature="0"
             id="path5067"
             d="m -786.29658,417.80881 c -7.25782,-3.61671 -14.45762,-13.15027 -23.39331,-30.97578 -8.73524,-17.42567 -16.29872,-37.51104 -21.76534,-57.79868 -9.30051,-34.51613 -18.69235,-57.46171 -29.98681,-73.26206 -2.6757,-3.7432 -4.56012,-7.11028 -4.1879,-7.48271 1.76844,-1.76847 16.7427,-3.90672 27.43254,-3.91726 83.35344,-0.0818 128.27242,96.67278 74.61417,160.71755 -5.81537,6.94092 -14.85019,14.86919 -16.94453,14.86919 -0.79942,0 -3.3955,-0.96766 -5.76882,-2.15025 z"
             style="color:#000000;fill:#324ab2;fill-opacity:1;fill-rule:nonzero;stroke-width:1.39310563;stroke-linecap:butt;stroke-linejoin:miter;stroke-miterlimit:4;stroke-opacity:1;stroke-dasharray:none;stroke-dashoffset:0;marker:none;visibility:visible;display:inline;overflow:visible;enable-background:accumulate" />
          <path
             inkscape:connector-curvature="0"
             id="path5069"
             d="m -844.3083,440.23931 c -11.43347,-0.99818 -25.94555,-4.42573 -27.2424,-6.43409 -1.81033,-2.80328 -0.0406,-19.95213 3.22171,-31.2295 4.2876,-14.81837 20.70002,-54.46195 22.32325,-53.92075 0.46276,0.15425 2.43473,5.86847 4.38213,12.69829 10.50762,36.85101 17.87866,54.54169 28.24543,67.79101 2.99277,3.82484 4.35252,6.21421 3.83231,6.73448 -2.19116,2.19113 -25.75534,5.14702 -34.76243,4.36056 z m -62.22485,-27.92867 c -15.49736,-15.32691 -24.43541,-32.00653 -28.42693,-53.04864 -1.6724,-8.81621 -1.68597,-25.13362 -0.0277,-34.63678 3.90393,-22.38654 16.46898,-44.13431 33.59403,-58.14497 l 5.99747,-4.90659 2.65849,1.31708 c 4.8435,2.39929 11.89234,8.6619 16.2697,14.45451 7.23843,9.57925 23.42255,43.85761 23.42255,49.60985 0,0.98423 -6.68446,14.72919 -14.85429,30.54445 -16.97949,32.86878 -20.85683,41.08401 -25.15837,53.3052 -1.91244,5.43363 -3.56058,8.83563 -4.35786,8.99595 -0.72142,0.14479 -4.70929,-3.13174 -9.11597,-7.49006 z"
             style="color:#000000;fill:#62b031;fill-opacity:1;fill-rule:nonzero;stroke-width:0.31982669;stroke-linecap:butt;stroke-linejoin:miter;stroke-miterlimit:4;stroke-opacity:1;stroke-dasharray:none;stroke-dashoffset:0;marker:none;visibility:visible;display:inline;overflow:visible;enable-background:accumulate"
             sodipodi:nodetypes="ssccsscscscsccssscccc" />
        </g>
      </g>
      <g
         style="font-size:44.60723495px;font-style:normal;font-variant:normal;font-weight:normal;font-stretch:normal;line-height:125%;letter-spacing:0px;word-spacing:0px;fill:#ffffff;fill-opacity:1;stroke:none;font-family:Aroania;-inkscape-font-specification:Aroania"
         id="text5081">
        <path
           d="m 1687.1667,3225.5798 c -2.0231,-1.2516 -3.4949,-2.5991 -4.4156,-4.0425 -1.4619,-2.2916 -1.9555,-4.5112 -1.4807,-6.6587 0.4917,-2.2667 2.0431,-4.233 4.6543,-5.8987 2.3908,-1.5251 4.7191,-2.1035 6.9847,-1.7351 2.3488,0.3773 4.2788,1.7504 5.7898,4.1192 1.0121,1.5865 1.6301,3.4787 1.854,5.6765 l -2.8591,1.8239 -0.084,-0.1322 c 0.2338,-2.4279 -0.1658,-4.4516 -1.1989,-6.0712 -1.0332,-1.6196 -2.3882,-2.4681 -4.0652,-2.5455 -1.4524,-0.065 -3.027,0.4429 -4.7237,1.5252 -1.6857,1.0753 -2.7995,2.2818 -3.3412,3.6195 -0.6148,1.5392 -0.4056,3.1186 0.6276,4.7382 0.6747,1.0577 1.5657,1.9077 2.6729,2.55 0.8204,0.4842 1.5961,0.8497 2.3271,1.0965 l 0.084,0.1322 -2.826,1.8027"
           style="font-size:40.14651108px;font-style:normal;font-variant:normal;font-weight:normal;font-stretch:normal;fill:#ffffff;font-family:Aroania;-inkscape-font-specification:Aroania"
           id="path5271" />
        <path
           d="m 1689.4816,3232.4319 -1.4503,-2.6699 24.0467,-13.0624 1.4503,2.6699 -24.0467,13.0624"
           style="font-size:40.14651108px;font-style:normal;font-variant:normal;font-weight:normal;font-stretch:normal;fill:#ffffff;font-family:Aroania;-inkscape-font-specification:Aroania"
           id="path5273" />
        <path
           d="m 1707.0391,3247.8904 c -2.5098,1.1734 -4.8366,1.5039 -6.9805,0.9915 -2.3239,-0.5581 -4.0587,-2.0624 -5.2044,-4.5129 -1.1513,-2.4624 -1.196,-4.7642 -0.1341,-6.9053 0.9752,-1.9563 2.7236,-3.5239 5.2452,-4.7029 2.5216,-1.1789 4.8515,-1.5181 6.9899,-1.0176 2.3238,0.5581 4.0614,2.0684 5.2127,4.5308 1.1458,2.4505 1.1818,4.7491 0.1081,6.8958 -0.9816,1.9736 -2.7272,3.5472 -5.2369,4.7206 m -1.3367,-2.859 c 4.1908,-1.9594 5.5528,-4.5077 4.086,-7.6449 -1.4723,-3.149 -4.3039,-3.7438 -8.4947,-1.7844 -4.179,1.9538 -5.5323,4.5053 -4.06,7.6543 1.4668,3.1372 4.2897,3.7289 8.4687,1.775"
           style="font-size:40.14651108px;font-style:normal;font-variant:normal;font-weight:normal;font-stretch:normal;fill:#ffffff;font-family:Aroania;-inkscape-font-specification:Aroania"
           id="path5275" />
        <path
           d="m 1722.2795,3253.3903 -1.2892,-3.179 2.9247,-1.1861 1.2892,3.179 -2.9247,1.1861 m -20.0485,7.9406 c -1.8408,0.7465 -3.4625,0.8683 -4.8652,0.3654 -1.4901,-0.5098 -2.6035,-1.673 -3.3402,-3.4895 -0.4518,-1.1142 -0.7412,-2.2449 -0.868,-3.3922 l 2.6885,-1.0903 0.059,0.1453 c 0,1.1551 0.1447,2.0779 0.4246,2.7682 0.5599,1.3805 1.3279,2.1267 2.304,2.2386 0.7843,0.091 2.0303,-0.21 3.7378,-0.9025 l 13.4972,-5.4739 -1.4146,-3.4878 2.3797,-0.9651 2.5639,6.3217 -17.1666,6.9621"
           style="font-size:40.14651108px;font-style:normal;font-variant:normal;font-weight:normal;font-stretch:normal;fill:#ffffff;font-family:Aroania;-inkscape-font-specification:Aroania"
           id="path5277" />
        <path
           d="m 1709.9147,3280.8607 -1.0274,-2.8595 1.8817,-0.6761 c -2.2945,-1.4391 -3.7644,-3.0564 -4.4095,-4.852 -1.3611,-3.788 0.1107,-6.4554 4.4153,-8.002 l 11.0504,-3.9703 1.034,2.8779 -9.7037,3.4865 c -1.8202,0.654 -3.0057,1.316 -3.5565,1.986 -0.6709,0.8382 -0.7456,1.9829 -0.2242,3.4342 0.5479,1.525 1.8244,2.9133 3.8293,4.1648 l 12.7108,-4.5669 1.0274,2.8594 -17.0276,6.118"
           style="font-size:40.14651108px;font-style:normal;font-variant:normal;font-weight:normal;font-stretch:normal;fill:#ffffff;font-family:Aroania;-inkscape-font-specification:Aroania"
           id="path5279" />
        <path
           d="m 1729.299,3292.8198 -0.048,-0.1493 c -0.077,-0.8812 -0.2728,-1.8133 -0.5882,-2.7964 -0.5109,-1.5929 -1.755,-3.0328 -3.7325,-4.32 l -12.2262,3.9216 -0.9281,-2.8932 17.2288,-5.5262 0.9281,2.8932 -2.5386,0.8143 c 2.3709,1.5727 3.8318,3.2176 4.3826,4.9349 0.1996,0.6222 0.3629,1.3452 0.4899,2.1691 l -2.9679,0.952"
           style="font-size:40.14651108px;font-style:normal;font-variant:normal;font-weight:normal;font-stretch:normal;fill:#ffffff;font-family:Aroania;-inkscape-font-specification:Aroania"
           id="path5281" />
        <path
           d="m 1728.6836,3312.1865 -3.7453,-12.7929 c -2.0569,0.6022 -3.461,1.6668 -4.2122,3.194 -0.6713,1.3812 -0.7408,2.9812 -0.2084,4.7998 0.2864,0.9782 0.7966,1.9999 1.5306,3.0651 0.7847,1.1455 1.5754,1.9626 2.3721,2.4511 l 0.044,0.1505 -3.1982,0.9363 c -1.6414,-2.025 -2.7338,-3.9656 -3.2772,-5.8218 -0.8446,-2.8847 -0.7261,-5.3637 0.3555,-7.4369 1.0852,-2.0607 3.0639,-3.5115 5.936,-4.3524 2.7091,-0.7931 5.1132,-0.7208 7.2125,0.217 2.2415,1.005 3.7514,2.837 4.5299,5.4959 0.7086,2.4206 0.5272,4.4755 -0.5442,6.1645 -1.0183,1.5917 -2.7503,2.7456 -5.196,3.4616 l -1.5991,0.4682 m 1.4071,-3.4962 c 3.2196,-0.9563 4.3796,-2.9708 3.48,-6.0436 -0.4333,-1.4799 -1.2302,-2.5743 -2.3909,-3.283 -1.1607,-0.7087 -2.4949,-0.9172 -4.0027,-0.6256 l 2.9136,9.9522"
           style="font-size:40.14651108px;font-style:normal;font-variant:normal;font-weight:normal;font-stretch:normal;fill:#ffffff;font-family:Aroania;-inkscape-font-specification:Aroania"
           id="path5283" />
        <path
           d="m 1743.0969,3329.3261 -19.3927,-2.1806 -0.8271,-2.9644 15.4734,-11.8674 0.8903,3.191 -12.3714,9.2721 15.3689,1.4715 0.8586,3.0778"
           style="font-size:40.14651108px;font-style:normal;font-variant:normal;font-weight:normal;font-stretch:normal;fill:#ffffff;font-family:Aroania;-inkscape-font-specification:Aroania"
           id="path5285" />
        <path
           d="m 1739.6741,3349.7799 -4.0268,-12.7071 c -2.0432,0.6474 -3.4234,1.7428 -4.1407,3.2862 -0.6407,1.3957 -0.6748,2.9968 -0.1024,4.8032 0.3079,0.9717 0.8406,1.9819 1.5979,3.0306 0.8098,1.1279 1.6183,1.9273 2.4256,2.3981 l 0.047,0.1495 -3.1768,1.0067 c -1.6856,-1.9883 -2.8206,-3.9043 -3.4049,-5.7481 -0.908,-2.8653 -0.8442,-5.3463 0.1913,-7.4429 1.0395,-2.0842 2.9856,-3.5783 5.8385,-4.4823 2.6909,-0.8528 5.0961,-0.8335 7.2155,0.058 2.2631,0.9553 3.8132,2.7535 4.6501,5.3946 0.7619,2.4044 0.6259,4.4627 -0.408,6.175 -0.9829,1.6138 -2.689,2.8056 -5.1183,3.5754 l -1.5883,0.5034 m 1.3295,-3.5264 c 3.1978,-1.0271 4.313,-3.0667 3.3458,-6.1189 -0.4659,-1.4701 -1.2868,-2.5465 -2.4628,-3.2294 -1.1761,-0.683 -2.5146,-0.862 -4.0156,-0.5371 l 3.1326,9.8854"
           style="font-size:40.14651108px;font-style:normal;font-variant:normal;font-weight:normal;font-stretch:normal;fill:#ffffff;font-family:Aroania;-inkscape-font-specification:Aroania"
           id="path5287" />
        <path
           d="m 1750.6041,3362.4765 -0.053,-0.1478 c -0.1038,-0.8784 -0.3283,-1.8041 -0.6736,-2.7771 -0.5595,-1.5764 -1.8473,-2.9775 -3.8632,-4.2034 l -12.1003,4.2946 -1.0163,-2.8634 17.0513,-6.0519 1.0162,2.8635 -2.5124,0.8917 c 2.418,1.4992 3.9287,3.0986 4.5319,4.7982 0.2185,0.6158 0.4039,1.3335 0.5562,2.1531 l -2.9373,1.0425"
           style="font-size:40.14651108px;font-style:normal;font-variant:normal;font-weight:normal;font-stretch:normal;fill:#ffffff;font-family:Aroania;-inkscape-font-specification:Aroania"
           id="path5289" />
        <path
           d="m 1747.2795,3380.2565 c -1.7765,0.6962 -3.4383,0.4492 -4.9856,-0.7411 -1.2963,-0.9798 -2.3164,-2.4188 -3.0603,-4.3169 -0.8393,-2.1415 -1.16,-4.3388 -0.9622,-6.5919 l 3.194,-1.2517 0.057,0.146 c -0.7093,2.5238 -0.6444,4.8564 0.1949,6.9979 1.0443,2.6646 2.3999,3.6704 4.0668,3.0171 0.7666,-0.3004 1.2264,-0.8105 1.3795,-1.5302 0.1003,-0.4604 0.075,-1.1874 -0.076,-2.181 -0.1618,-0.8068 -0.3633,-2.0192 -0.6043,-3.6372 -0.3455,-2.9947 0.6316,-4.9426 2.9312,-5.8439 1.3993,-0.5483 2.8243,-0.4401 4.275,0.3248 1.5037,0.8284 2.6776,2.3194 3.5216,4.473 0.8249,2.105 1.1395,4.1433 0.9437,6.115 l -3.0297,1.1873 -0.057,-0.146 c 0.5883,-2.2237 0.4772,-4.3698 -0.3335,-6.4383 -0.3719,-0.949 -0.8448,-1.6901 -1.4186,-2.2232 -0.7475,-0.6896 -1.5471,-0.8675 -2.3989,-0.5337 -1.1924,0.4673 -1.6487,1.6848 -1.3688,3.6525 0.1449,0.7994 0.3548,2.0155 0.6297,3.6483 0.4402,2.9856 -0.5261,4.9434 -2.8987,5.8732"
           style="font-size:40.14651108px;font-style:normal;font-variant:normal;font-weight:normal;font-stretch:normal;fill:#ffffff;font-family:Aroania;-inkscape-font-specification:Aroania"
           id="path5291" />
        <path
           d="m 1758.1901,3396.5829 -5.3601,-12.2048 c -1.9623,0.8618 -3.2177,2.0983 -3.7662,3.7094 -0.4881,1.4562 -0.3512,3.0517 0.4108,4.7867 0.4099,0.9333 1.0473,1.8809 1.9122,2.8427 0.9256,1.0351 1.8148,1.7436 2.6677,2.1256 l 0.063,0.1436 -3.0512,1.34 c -1.8882,-1.797 -3.2212,-3.581 -3.9989,-5.3519 -1.2087,-2.752 -1.4101,-5.2256 -0.6043,-7.4208 0.8111,-2.1832 2.5867,-3.8764 5.3268,-5.0798 2.5845,-1.1351 4.978,-1.3727 7.1804,-0.7128 2.3522,0.7083 4.0853,2.3308 5.1994,4.8675 1.0141,2.3093 1.0986,4.3704 0.2534,6.1832 -0.8051,1.7095 -2.3742,3.0766 -4.7074,4.1014 l -1.5256,0.67 m 0.9455,-3.6482 c 3.0699,-1.3625 3.9611,-3.5095 2.6736,-6.441 -0.6201,-1.412 -1.5512,-2.3947 -2.7934,-2.9482 -1.2422,-0.5535 -2.5922,-0.5886 -4.05,-0.1054 l 4.1698,9.4946"
           style="font-size:40.14651108px;font-style:normal;font-variant:normal;font-weight:normal;font-stretch:normal;fill:#ffffff;font-family:Aroania;-inkscape-font-specification:Aroania"
           id="path5293" />
        <path
           d="m 1756.7519,3408.2888 c -0.6351,0.3078 -1.2931,0.3436 -1.974,0.1073 -0.6635,-0.2303 -1.1491,-0.6629 -1.4569,-1.298 -0.3079,-0.635 -0.3495,-1.2901 -0.1249,-1.9654 0.242,-0.6692 0.6805,-1.1577 1.3156,-1.4655 0.635,-0.3078 1.2842,-0.3466 1.9477,-0.1163 0.681,0.2363 1.1753,0.672 1.4832,1.307 0.3078,0.6351 0.3407,1.2872 0.099,1.9564 -0.2246,0.6752 -0.6544,1.1667 -1.2894,1.4745"
           style="font-size:40.14651108px;font-style:normal;font-variant:normal;font-weight:normal;font-stretch:normal;fill:#ffffff;font-family:Aroania;-inkscape-font-specification:Aroania"
           id="path5295" />
        <path
           d="m 1772.8045,3424.3634 c -2.4349,1.3218 -4.7377,1.7913 -6.9084,1.4083 -2.3532,-0.4177 -4.1751,-1.8153 -5.4658,-4.1927 -1.2969,-2.3889 -1.4795,-4.6839 -0.5479,-6.8848 0.8561,-2.0112 2.5074,-3.6809 4.9537,-5.0089 2.4464,-1.3281 4.7518,-1.8064 6.9163,-1.435 2.3532,0.4178 4.1782,1.8211 5.4751,4.21 1.2906,2.3775 1.4644,4.6698 0.5213,6.8769 -0.8614,2.029 -2.5095,3.7044 -4.9443,5.0262 m -1.5058,-2.7737 c 4.0658,-2.2072 5.2725,-4.8326 3.6203,-7.8762 -1.6586,-3.055 -4.5207,-3.479 -8.5865,-1.2718 -4.0543,2.201 -5.2522,4.829 -3.5937,7.8841 1.6523,3.0436 4.5056,3.4649 8.5599,1.2639"
           style="font-size:40.14651108px;font-style:normal;font-variant:normal;font-weight:normal;font-stretch:normal;fill:#ffffff;font-family:Aroania;-inkscape-font-specification:Aroania"
           id="path5297" />
        <path
           d="m 1785.8858,3434.0799 -0.086,-0.1313 c -0.3075,-0.8293 -0.7435,-1.6763 -1.3079,-2.5407 -0.9146,-1.4006 -2.4957,-2.4596 -4.7434,-3.177 l -10.7509,7.02 -1.6612,-2.5441 15.1496,-9.8923 1.6613,2.5441 -2.2323,1.4576 c 2.7028,0.8884 4.5472,2.0877 5.5333,3.5977 0.3572,0.5472 0.7062,1.2011 1.0469,1.9619 l -2.6097,1.7041"
           style="font-size:40.14651108px;font-style:normal;font-variant:normal;font-weight:normal;font-stretch:normal;fill:#ffffff;font-family:Aroania;-inkscape-font-specification:Aroania"
           id="path5299" />
        <path
           d="m 1786.7349,3453.8126 c -4.2665,4.1418 -8.3796,4.1733 -12.3393,0.094 -1.2744,-1.3127 -2.3659,-2.8122 -3.2743,-4.4985 l 2.2364,-2.171 0.1092,0.1125 c 0.8122,1.9436 1.8373,3.553 3.0753,4.8282 1.3654,1.4065 2.6679,2.0728 3.9074,1.9987 1.0635,-0.049 2.1485,-0.6105 3.255,-1.6846 l 1.1955,-1.1606 c -2.3155,-0.2839 -4.1923,-1.1665 -5.6306,-2.6481 -1.684,-1.7347 -2.2928,-3.6845 -1.8264,-5.8494 0.3973,-1.861 1.5054,-3.6744 3.3245,-5.4404 2.0535,-1.9935 4.2868,-3.0232 6.6999,-3.0892 2.2005,-0.06 4.0699,0.7027 5.6083,2.2873 1.1833,1.219 2.0072,2.6868 2.4716,4.4034 l 0.6992,-0.4055 1.9935,2.0535 -11.5052,11.1693 m -0.034,-4.2287 7.0747,-6.8681 c -0.5592,-1.5517 -1.3213,-2.8245 -2.2862,-3.8184 -1.2926,-1.3315 -2.7309,-1.875 -4.3149,-1.6305 -1.3895,0.2197 -2.7782,1.0032 -4.1659,2.3504 -2.9537,2.8674 -3.361,5.4029 -1.2218,7.6065 1.238,1.2752 2.876,2.0619 4.9141,2.3601"
           style="font-size:40.14651108px;font-style:normal;font-variant:normal;font-weight:normal;font-stretch:normal;fill:#ffffff;font-family:Aroania;-inkscape-font-specification:Aroania"
           id="path5301" />
      </g>
      <path
         sodipodi:nodetypes="csscc"
         inkscape:connector-curvature="0"
         id="path5206"
         d="m 1677.2233,3212.513 c 17.1693,24.0181 31.4456,58.8976 45.5827,111.365 8.3104,30.8392 19.8075,61.3704 33.0855,87.8594 13.5831,27.096 24.527,41.5883 35.5602,47.0851 3.6066,1.7978 7.5529,3.269 8.7689,3.269"
         style="color:#000000;fill:none;stroke:none;stroke-width:1.25869668;marker:none;visibility:visible;display:inline;overflow:visible;enable-background:accumulate" />
    </g>
  </g>
</svg>
